HIERARCHY
ROOT Hips
{
  OFFSET 3.13124 94.3669 -3.18751
  CHANNELS  6 Xposition Yposition Zposition Zrotation Xrotation Yrotation
  JOINT LeftUpLeg
  {
    OFFSET 8.64259 1.95398 -2.38835
    CHANNELS 3 Zrotation Xrotation Yrotation
    JOINT LeftLeg
    {
      OFFSET 43.7702 0 0
      CHANNELS 3 Zrotation Xrotation Yrotation
      JOINT LeftFoot
      {
        OFFSET 40.6238 0 0
        CHANNELS 3 Zrotation Xrotation Yrotation
        JOINT LeftToeBase
        {
          OFFSET 12.7242 0 0
          CHANNELS 3 Zrotation Xrotation Yrotation
          End Site
          {
            OFFSET 0 0 0
          }
        }
      }
    }
  }
  JOINT RightUpLeg
  {
    OFFSET -8.2249 1.95398 -2.59336
    CHANNELS 3 Zrotation Xrotation Yrotation
    JOINT RightLeg
    {
      OFFSET 43.5653 0 0
      CHANNELS 3 Zrotation Xrotation Yrotation
      JOINT RightFoot
      {
        OFFSET 40.6238 0 0
        CHANNELS 3 Zrotation Xrotation Yrotation
        JOINT RightToeBase
        {
          OFFSET 12.7242 0 0
          CHANNELS 3 Zrotation Xrotation Yrotation
          End Site
          {
            OFFSET 0 0 0
          }
        }
      }
    }
  }
  JOINT Spine
  {
    OFFSET 0.165834 0.87714 6.61349
    CHANNELS 3 Zrotation Xrotation Yrotation
    JOINT Spine1
    {
      OFFSET 7.38962 1.71661e-005 0
      CHANNELS 3 Zrotation Xrotation Yrotation
      JOINT Spine2
      {
        OFFSET 11.9445 1.14441e-005 0
        CHANNELS 3 Zrotation Xrotation Yrotation
        JOINT Spine3
        {
          OFFSET 14.7254 4.19617e-005 0
          CHANNELS 3 Zrotation Xrotation Yrotation
          JOINT Spine4
          {
            OFFSET 10.9679 0 0
            CHANNELS 3 Zrotation Xrotation Yrotation
            JOINT RightShoulder
            {
              OFFSET 2.46616 -1.6653 3.69651
              CHANNELS 3 Zrotation Xrotation Yrotation
              JOINT RightArm
              {
                OFFSET 13.0012 0 0
                CHANNELS 3 Zrotation Xrotation Yrotation
                JOINT RightForeArm
                {
                  OFFSET 28.7848 1.52588e-005 0
                  CHANNELS 3 Zrotation Xrotation Yrotation
                  JOINT RightHand
                  {
                    OFFSET 26.5688 1.52588e-005 0
                    CHANNELS 3 Zrotation Xrotation Yrotation
                    End Site
                    {
                      OFFSET 0 0 0
                    }
                  }
                }
              }
            }
            JOINT LeftShoulder
            {
              OFFSET 2.38034 -1.29275 -3.75231
              CHANNELS 3 Zrotation Xrotation Yrotation
              JOINT LeftArm
              {
                OFFSET 16.3182 6.10352e-005 0
                CHANNELS 3 Zrotation Xrotation Yrotation
                JOINT LeftForeArm
                {
                  OFFSET 27.0901 0 0
                  CHANNELS 3 Zrotation Xrotation Yrotation
                  JOINT LeftHand
                  {
                    OFFSET 24.5451 1.52588e-005 0
                    CHANNELS 3 Zrotation Xrotation Yrotation
                    End Site
                    {
                      OFFSET 0 0 0
                    }
                  }
                }
              }
            }
            JOINT Neck
            {
              OFFSET 5.0226 -0.0266342 0
              CHANNELS 3 Zrotation Xrotation Yrotation
              JOINT Head
              {
                OFFSET 6.69363 2.86102e-005 0
                CHANNELS 3 Zrotation Xrotation Yrotation
                End Site
                {
                  OFFSET 0 0 0
                }
              }
            }
          }
        }
      }
    }
  }
}
MOTION
Frames:	9
Frame Time:	0.0333333
82.0038 107.362 62.6905 102.969 -53.2096 98.3511 -171.568 2.04937 91.7321 -17.6066 7.71942 5.57541 1.38808 -8.86964 -19.8421 28.7808 6.06458e-006 1.29276e-006 179.936 16.9458 80.0025 -41.8164 -23.1114 -1.55785 9.34975 9.26845 16.2052 28.7808 1.48984e-005 2.7293e-005 -0.377064 4.61012 -87.897 17.6132 -0.945078 -0.65556 5.94249 -0.973029 -0.613333 -16.593 -0.704368 -0.909291 3.4196 -0.704366 -0.90929 86.7814 -32.0166 -112.151 49.6395 2.96099 -53.9575 -4.01654 0.0823281 -7.07588 -5.37983 -0.320015 -0.0162402 -87.993 -37.9852 79.2502 -35.1266 0.278043 -55.1245 10.9413 51.0983 -16.8051 15.3938 -0.204022 -5.06491 46.7777 3.60534 3.87807 -29.0318 1.67344 -2.0317 
82.5462 107.294 63.1679 103.677 -53.3504 99.0051 -171.344 0.948868 91.9934 -17.3998 8.83147 5.83485 1.92141 -9.67629 -20.9993 28.7808 6.06458e-006 1.29276e-006 179.805 16.116 79.7185 -41.5563 -25.0158 -1.65456 9.15178 9.92671 17.2592 28.7808 1.48984e-005 2.7293e-005 -0.374807 4.55573 -87.9524 17.72 -1.02489 -0.692667 6.04933 -1.0544 -0.64688 -16.4864 -0.769363 -0.968655 3.52627 -0.769344 -0.968665 86.4781 -31.6882 -112.873 52.0501 -1.19613 -54.2968 -3.30204 0.0860962 -6.48196 -5.37983 -0.320015 -0.0162402 -88.0396 -37.1304 78.9647 -36.8021 5.32827 -57.2396 13.3758 58.1179 -18.6558 13.2002 0.173558 -2.44985 48.7229 3.8987 3.77898 -29.9898 1.9181 -1.95514 
83.0909 107.219 63.6346 104.358 -53.4966 99.595 -171.229 0.00174503 92.0946 -17.3235 8.96464 6.0192 2.11917 -10.2132 -21.8169 28.7808 6.06458e-006 1.29276e-006 179.838 15.7549 79.5884 -42.2135 -24.5733 -1.64448 9.09696 9.77812 17.0564 28.7808 1.48984e-005 2.7293e-005 -0.393695 4.49778 -87.9538 17.8311 -1.14744 -0.727027 6.16045 -1.17832 -0.675825 -16.3757 -0.875896 -1.03827 3.63695 -0.875897 -1.03827 86.0563 -31.1646 -113.917 54.2604 -5.04111 -54.668 -1.0685 -0.0535222 -5.8468 -5.37983 -0.320015 -0.0162402 -88.0473 -36.7946 78.8691 -37.5438 9.1686 -58.3033 15.7527 61.44 -21.2507 12.8776 -0.153437 -4.83515 50.3582 4.25164 3.61486 -30.9276 2.32408 -2.07403 
83.6087 107.203 64.0416 105.103 -53.6981 100.139 -171.15 -0.599917 92.0336 -17.6121 8.6126 5.88554 2.05273 -10.0208 -21.5246 28.7808 6.06458e-006 1.29276e-006 179.771 15.1215 79.3148 -42.2318 -25.795 -1.70948 9.26956 9.69176 16.8633 28.7808 1.48984e-005 2.7293e-005 -0.389155 4.43322 -87.9579 17.957 -1.22828 -0.792418 6.28646 -1.26198 -0.737586 -16.2497 -0.933354 -1.12493 3.76289 -0.93337 -1.12493 85.6618 -30.5295 -114.975 56.0513 -7.95569 -53.9633 -0.970844 0.0532018 -5.50785 -5.37983 -0.320015 -0.0162402 -87.5502 -36.7737 79.7378 -39.012 13.1578 -59.3401 20.4773 64.1428 -25.7821 9.13485 -0.124354 -4.71808 51.6708 5.15122 4.44283 -31.7164 2.86713 -3.01897 
84.1113 107.207 64.4256 105.875 -53.9659 100.625 -171.153 -1.07613 91.7937 -18.0369 8.03293 5.67751 1.93309 -9.50301 -20.6966 28.7808 6.06458e-006 1.29276e-006 179.745 14.6597 79.0196 -42.3658 -26.5674 -1.75317 8.71143 9.49761 16.7549 28.7808 1.48984e-005 2.7293e-005 -0.383648 4.35331 -87.926 18.1136 -1.29905 -0.834024 6.44308 -1.33451 -0.776045 -16.0933 -0.988358 -1.18588 3.91938 -0.988357 -1.18589 85.4434 -29.9538 -115.681 57.9688 -10.8228 -53.5095 -1.54046 0.13727 -5.08458 -5.37983 -0.320015 -0.0162402 -87.3584 -36.6879 80.0559 -38.9163 16.4852 -60.3375 33.3563 70.558 -38.1787 7.90465 -0.396499 -7.75354 52.3447 5.6941 4.45797 -32.2303 3.38639 -3.17637 
84.5473 107.194 64.8182 106.782 -54.0639 101.32 -171.065 -1.56725 91.7326 -18.4874 7.96239 5.61027 1.54835 -9.14928 -20.2798 28.7808 6.06458e-006 1.29276e-006 179.774 14.1552 79.0818 -42.773 -25.8383 -1.72094 8.38199 8.92999 15.9977 28.7808 1.48984e-005 2.7293e-005 -0.358084 4.3205 -87.8846 18.1771 -1.34349 -0.889973 6.50655 -1.38135 -0.829997 -16.0297 -1.01392 -1.2526 3.98297 -1.01392 -1.2526 85.3598 -29.0816 -116.29 58.5683 -12.85 -53.2306 1.17136 -0.115705 -6.3489 -5.37983 -0.320015 -0.0162402 -87.3583 -36.646 80.0464 -38.0764 18.6249 -60.9675 38.8281 70.9929 -44.7724 8.12455 -0.621104 -10.1601 52.9619 6.14976 4.86298 -32.6071 3.68163 -3.70559 
84.9474 107.222 65.1712 107.466 -54.444 101.808 -171.048 -1.69789 91.4627 -19.2399 6.71815 5.14804 1.64999 -8.02031 -18.3029 28.7808 6.06458e-006 1.29276e-006 179.823 13.9513 79.0996 -43.0187 -25.7323 -1.71848 7.55236 8.29558 15.2798 28.7808 1.48984e-005 2.7293e-005 -0.2733 4.26583 -87.7745 18.2902 -1.24477 -0.924413 6.6196 -1.28423 -0.868741 -15.9158 -0.909415 -1.25575 4.09686 -0.909403 -1.25577 85.8442 -28.8383 -115.471 59.1891 -15.2611 -53.2604 2.24512 -0.140402 -6.67548 -5.37983 -0.320015 -0.0162402 -87.1172 -35.8344 80.287 -37.5268 20.8054 -62.0726 48.6761 72.1212 -54.9094 2.94924 -0.421869 -11.5441 53.5846 6.17874 4.99337 -33.2009 3.64832 -3.84797 
85.3383 107.303 65.4755 107.553 -54.8274 101.732 -171.227 -1.35041 90.8631 -20.1823 4.91357 4.54753 1.91535 -6.32138 -15.2629 28.7808 6.06458e-006 1.29276e-006 179.885 13.984 79.079 -43.0942 -25.5925 -1.71709 6.84277 7.5441 14.3112 28.7808 1.48984e-005 2.7293e-005 -0.199239 4.17076 -87.6419 18.4845 -1.13929 -0.946364 6.81379 -1.1798 -0.895322 -15.7208 -0.802193 -1.24499 4.29178 -0.802203 -1.245 86.9719 -28.1449 -113.592 58.8036 -18.5037 -53.5961 4.43161 -0.272128 -7.88509 -5.37983 -0.320015 -0.0162402 -87.2225 -34.9599 79.8944 -35.3627 22.1004 -63.0499 47.5896 68.9418 -56.041 -3.99192 0.0363979 -13.5712 53.6701 5.89936 4.52095 -33.0571 3.46538 -3.10168 
85.6553 107.342 65.7549 107.37 -55.1298 101.429 -171.518 -1.05009 90.2851 -20.8269 4.13967 4.46634 1.99041 -5.55859 -13.9186 28.7808 6.06458e-006 1.29276e-006 179.949 14.1772 79.1509 -43.3539 -25.6546 -1.71529 6.47964 6.59247 12.8994 28.7808 1.48984e-005 2.7293e-005 -0.177316 4.0859 -87.5336 18.6552 -1.10403 -0.908868 6.98443 -1.14295 -0.859397 -15.5503 -0.779856 -1.19864 4.46233 -0.779853 -1.19864 87.6423 -27.7963 -112.418 56.3244 -21.2599 -54.3692 7.63748 -0.608877 -10.1374 -5.37983 -0.320015 -0.0162402 -86.9707 -34.6773 80.2827 -32.9637 22.7516 -63.7701 36.1708 63.0146 -48.3044 -4.53169 0.107586 -14.8416 54.141 5.74708 4.08347 -32.9487 3.51374 -2.87457 
